<svg xmlns="http://www.w3.org/2000/svg" viewBox="0 0 96 96" role="img" aria-labelledby="title">
<title id="title">Ícone adoção</title>
<circle cx="48" cy="48" r="44" fill="#e8f2ff"/>
<path d="M25 61c0-15 10-27 23-27s23 12 23 27v11H25V61z" fill="#f97316"/>
<circle cx="39" cy="44" r="5" fill="#17212b"/><circle cx="57" cy="44" r="5" fill="#17212b"/>
<path d="M47 55c5 0 8 3 8 7s-4 9-8 9-8-5-8-9 3-7 8-7z" fill="#17212b"/>
<path d="M28 38c-6-14 0-22 12-18 1 10-1 17-12 18zM66 38c6-14 0-22-12-18-1 10 1 17 12 18z" fill="#c75c12"/>
</svg>
