<svg xmlns="http://www.w3.org/2000/svg" viewBox="0 0 520 360" role="img" aria-labelledby="title desc">
<title id="title">Luna</title>
<desc id="desc">Cadela caramelo de porte médio.</desc>
<rect width="520" height="360" rx="28" fill="#fffaf1"/>
<circle cx="420" cy="78" r="52" fill="#ffd166" opacity=".75"/>
<ellipse cx="260" cy="280" rx="170" ry="40" fill="#eadfce"/>
<path d="M191 196c-64 2-107 36-109 83h274c-4-57-67-87-135-82l-30-1z" fill="#c77836"/>
<circle cx="212" cy="148" r="78" fill="#d99051"/>
<path d="M148 131c-35-52-26-96 21-113 5 49 21 82 50 109l-71 4zM270 126c33-55 77-72 119-41-28 38-61 58-101 61l-18-20z" fill="#9b5423"/>
<circle cx="184" cy="145" r="8" fill="#17212b"/><circle cx="237" cy="145" r="8" fill="#17212b"/>
<path d="M211 168c11 0 18 6 18 14 0 12-10 25-18 25s-18-13-18-25c0-8 7-14 18-14z" fill="#17212b"/>
<path d="M182 207c18 14 43 14 61 0" stroke="#17212b" stroke-width="7" stroke-linecap="round" fill="none"/>
<path d="M345 205c42-8 76 13 89 51" stroke="#c77836" stroke-width="18" stroke-linecap="round" fill="none"/>
<path d="M118 257v64M190 256v68M304 256v68" stroke="#9b5423" stroke-width="22" stroke-linecap="round"/>
</svg>
