<svg xmlns="http://www.w3.org/2000/svg" viewBox="0 0 760 520" role="img" aria-labelledby="title desc">
<title id="title">Voluntários organizando ajuda</title>
<desc id="desc">Voluntários com sacos de ração, caixa de transporte e cobertores para animais.</desc>
<rect width="760" height="520" rx="36" fill="#fffaf1"/>
<circle cx="632" cy="88" r="80" fill="#ffd166" opacity=".75"/>
<circle cx="118" cy="420" r="96" fill="#bde8df"/>
<path d="M95 380h570v52c0 34-28 62-62 62H157c-34 0-62-28-62-62v-52z" fill="#0f766e" opacity=".15"/>
<rect x="94" y="228" width="156" height="176" rx="22" fill="#f97316"/>
<path d="M121 263h102M121 298h102M121 333h70" stroke="#fffaf1" stroke-width="13" stroke-linecap="round"/>
<text x="128" y="385" font-family="Arial" font-size="28" font-weight="700" fill="#fffaf1">RAÇÃO</text>
<rect x="292" y="248" width="190" height="132" rx="20" fill="#0f766e"/>
<rect x="322" y="278" width="130" height="42" rx="13" fill="#fffaf1" opacity=".95"/>
<circle cx="350" cy="337" r="12" fill="#ffd166"/><circle cx="424" cy="337" r="12" fill="#ffd166"/>
<path d="M335 242c0-29 23-52 52-52s52 23 52 52" stroke="#0b5651" stroke-width="18" fill="none" stroke-linecap="round"/>
<path d="M543 236c49 12 82 57 75 107-8 59-62 100-121 92-31-4-57-22-73-47 77 2 126-54 119-152z" fill="#8ea4b8"/>
<path d="M513 241l-37-67c43 8 69 29 82 65l-45 2z" fill="#6d8194"/>
<circle cx="525" cy="309" r="8" fill="#17212b"/><circle cx="574" cy="309" r="8" fill="#17212b"/>
<path d="M546 330c6 7 16 7 22 0" stroke="#17212b" stroke-width="6" stroke-linecap="round" fill="none"/>
<path d="M235 177c-24-31-19-74 15-96 34 23 49 56 42 99l-57-3z" fill="#f8c9a5"/>
<circle cx="265" cy="89" r="42" fill="#f8c9a5"/>
<path d="M221 89c5-55 77-74 102-21 12 26 2 56-14 73-19-13-45-16-72-4-10-11-17-27-16-48z" fill="#17212b"/>
<path d="M206 196c35-47 93-48 132-3l-18 99H225l-19-96z" fill="#0f766e"/>
<path d="M211 209c-34 31-56 65-66 105" stroke="#f8c9a5" stroke-width="22" stroke-linecap="round"/>
<path d="M332 210c30 24 54 54 73 91" stroke="#f8c9a5" stroke-width="22" stroke-linecap="round"/>
</svg>
